# xmcd
#
# Track frame offsets: 
#        150
#        12386
#        24376
#        38555
#        50892
#        65638
#        78720
#        92933
#        104019
#        116428
#        130092
#        145024
#        155730
#        168091
#        181904
#        196237
#        205975
#        218889
#        232688
#        242705
#        254876
#        268536
#
# Disc length: 3755 seconds
#
# Revision: 0
# Processed by: cddbd v1.5.2PL0 Copyright (c) Steve Scherf et al.
# Submitted via: ExactAudioCopy v0.99pb5
#
DISCID=3d0ea916
DTITLE=Bing Crosby - Another Ride in Cowboy Country
DYEAR=1900
DGENRE=Country
TTITLE0=I'm an Old Cowhand
TTITLE1=Be Honest with Me
TTITLE2=Along the Santa Fe Trail
TTITLE3=It Makes No Difference Now
TTITLE4=San Antonio Rose
TTITLE5=When the Bloom is on the Sage
TTITLE6=Walking the Floor over You
TTITLE7=Deep in the Heart of Texas
TTITLE8=Careless Hands
TTITLE9=Pistol Packin' Mama
TTITLE10=Have I Told You Lately That I Love You?
TTITLE11=El Rancho Grande
TTITLE12=Along the Navajo Trail
TTITLE13=Riders in the Sky
TTITLE14=Twilight on the Trail
TTITLE15=Jingle, Jangle, Jingle
TTITLE16=It's a Lonely Trail
TTITLE17=Cool Water
TTITLE18=Copper Canyon
TTITLE19=Dear Hearts and Gentle People
TTITLE20=Sierra Sue
TTITLE21=We'll Rest at the End of the Trail
EXTD=
EXTT0=
EXTT1=
EXTT2=
EXTT3=
EXTT4=
EXTT5=
EXTT6=
EXTT7=
EXTT8=
EXTT9=
EXTT10=
EXTT11=
EXTT12=
EXTT13=
EXTT14=
EXTT15=
EXTT16=
EXTT17=
EXTT18=
EXTT19=
EXTT20=
EXTT21=
PLAYORDER=
